<?xml version="1.0" encoding="UTF-8" standalone="no"?>
<svg
   xmlns:dc="http://purl.org/dc/elements/1.1/"
   xmlns:cc="http://creativecommons.org/ns#"
   xmlns:rdf="http://www.w3.org/1999/02/22-rdf-syntax-ns#"
   xmlns:svg="http://www.w3.org/2000/svg"
   xmlns="http://www.w3.org/2000/svg"
   xmlns:sodipodi="http://sodipodi.sourceforge.net/DTD/sodipodi-0.dtd"
   xmlns:inkscape="http://www.inkscape.org/namespaces/inkscape"
   viewBox="0 0 1463.9323 488.78132"
   height="488.78131"
   width="1463.9323"
   xml:space="preserve"
   version="1.1"
   id="svg2"
   inkscape:version="0.48.5 r10040"
   sodipodi:docname="Chixxs_logo_black.svg"><sodipodi:namedview
     pagecolor="#ffffff"
     bordercolor="#666666"
     borderopacity="1"
     objecttolerance="10"
     gridtolerance="10"
     guidetolerance="10"
     inkscape:pageopacity="0"
     inkscape:pageshadow="2"
     inkscape:window-width="1015"
     inkscape:window-height="649"
     id="namedview3099"
     showgrid="false"
     showguides="true"
     inkscape:guide-bbox="true"
     fit-margin-top="0"
     fit-margin-left="0"
     fit-margin-right="0"
     fit-margin-bottom="0"
     inkscape:zoom="0.31220785"
     inkscape:cx="443.55202"
     inkscape:cy="159.17735"
     inkscape:window-x="0"
     inkscape:window-y="0"
     inkscape:window-maximized="0"
     inkscape:current-layer="svg2" /><metadata
     id="metadata8"><rdf:RDF><cc:Work
         rdf:about=""><dc:format>image/svg+xml</dc:format><dc:type
           rdf:resource="http://purl.org/dc/dcmitype/StillImage" /><dc:title></dc:title></cc:Work></rdf:RDF></metadata><defs
     id="defs6"><clipPath
       id="clipPath16"
       clipPathUnits="userSpaceOnUse"><path
         id="path18"
         d="m 0,566.93 482.263,0 L 482.263,0 0,0 0,566.93 z"
         inkscape:connector-curvature="0" /></clipPath></defs><g
     id="g20"
     transform="matrix(1.3333333,0,0,-1.3333333,178.39879,323.43239)"><path
       inkscape:connector-curvature="0"
       d="m 0,0 c -3.172,0 -5.759,-2.584 -5.759,-5.763 0,-3.172 2.587,-5.757 5.759,-5.757 1.541,0 2.988,0.602 4.077,1.694 1.082,1.08 1.687,2.531 1.687,4.063 C 5.764,-2.588 3.175,0 0,0"
       style="fill:#231f20;fill-opacity:1;fill-rule:nonzero;stroke:none"
       id="path22" /></g><g
     id="g24"
     transform="matrix(1.3333333,0,0,-1.3333333,379.73865,218.66666)"><path
       inkscape:connector-curvature="0"
       d="m 0,0 c 3.234,-1.581 4.58,-5.485 2.996,-8.722 -1.125,-2.32 -3.445,-3.664 -5.861,-3.664 -0.959,0 -1.934,0.209 -2.856,0.664 L -43.49,6.694 -88.498,-19.289 0.9,-70.904 c 3.123,-1.804 4.192,-5.793 2.393,-8.913 -1.207,-2.086 -3.4,-3.258 -5.656,-3.258 -1.102,0 -2.225,0.289 -3.252,0.876 l -95.929,55.385 -63.977,-36.938 c -1.564,-0.947 -13.815,-8.014 -32.388,-8.014 -2.974,0 -6.109,0.178 -9.384,0.596 -3.574,0.453 -6.107,3.718 -5.652,7.29 0.452,3.571 3.726,6.097 7.288,5.648 20.118,-2.544 33.198,5.519 33.32,5.602 l 0.232,0.139 7.98,4.595 49.55,28.603 -45.004,25.987 -37.775,-18.416 c -0.919,-0.446 -1.893,-0.661 -2.849,-0.661 -2.416,0 -4.736,1.341 -5.866,3.667 -1.578,3.231 -0.235,7.14 2.999,8.716 l 29.864,14.562 -30.769,17.766 c -3.12,1.794 -4.186,5.784 -2.388,8.903 1.801,3.123 5.789,4.181 8.91,2.387 l 30.764,-17.766 -2.316,33.14 c -0.253,3.594 2.46,6.71 6.046,6.959 3.582,0.246 6.709,-2.455 6.963,-6.049 l 2.934,-41.914 45.009,-25.987 0,51.972 -34.839,23.495 c -2.981,2.015 -3.772,6.073 -1.754,9.057 2.012,2.985 6.06,3.77 9.051,1.76 l 27.542,-18.579 0,35.522 c 0,3.605 2.916,6.521 6.519,6.521 3.596,0 6.522,-2.916 6.522,-6.521 l 0,-35.522 27.537,18.579 c 2.985,2.006 7.037,1.225 9.055,-1.76 2.012,-2.984 1.221,-7.042 -1.764,-9.057 l -34.828,-23.492 0,-51.975 45.006,25.987 2.932,41.914 c 0.25,3.594 3.386,6.274 6.959,6.049 3.594,-0.249 6.301,-3.365 6.049,-6.959 l -2.315,-33.14 30.766,17.766 C -2.496,45.412 1.49,44.349 3.293,41.231 5.092,38.112 4.023,34.122 0.9,32.322 L -29.861,14.562 0,0 z m -36.643,-80.291 c -3.775,-6.849 -1.359,-13.528 -1.253,-13.805 0.951,-2.553 0.23,-5.461 -1.829,-7.242 -1.222,-1.064 -2.757,-1.621 -4.304,-1.621 -1.055,0 -2.11,0.262 -3.073,0.785 -18.664,10.192 -19.535,34.822 -19.56,35.868 -0.098,3.601 2.74,6.594 6.344,6.692 0.054,0.007 0.117,0.007 0.179,0.007 3.51,0 6.405,-2.796 6.512,-6.33 0.004,-0.127 0.283,-6.857 3.209,-13.582 0.566,1.812 1.332,3.67 2.367,5.532 1.74,3.15 5.705,4.295 8.858,2.553 3.152,-1.742 4.297,-5.707 2.55,-8.857 m -101.065,-17.336 c -3.547,-3.551 -8.27,-5.51 -13.293,-5.51 l -0.004,0 c -10.358,0 -18.795,8.436 -18.799,18.8 0.004,10.371 8.441,18.804 18.799,18.804 10.365,0 18.801,-8.433 18.805,-18.804 0,-5.02 -1.955,-9.737 -5.508,-13.29 M -101.509,164 c -101.228,0 -183.295,-82.063 -183.295,-183.293 0,-101.227 82.067,-183.293 183.295,-183.293 101.23,0 183.288,82.066 183.288,183.293 C 81.779,81.937 -0.279,164 -101.509,164"
       style="fill:#231f20;fill-opacity:1;fill-rule:nonzero;stroke:none"
       id="path26" /></g><g
     id="g3191"
     transform="matrix(3.137982,0,0,3.137982,-0.88937597,-1781.7467)"><g
       transform="matrix(1.3333333,0,0,-1.3333333,200.72133,671.76347)"
       id="g28"><path
         id="path30"
         style="fill:#231f20;fill-opacity:1;fill-rule:nonzero;stroke:none"
         d="m 0,0 c -1.314,1.41 -3.342,2.209 -5.267,2.209 -1.927,0 -3.948,-0.799 -5.26,-2.209 -2.308,-2.4 -2.4,-6.535 -2.4,-9.588 0,-3.062 0.092,-7.154 2.4,-9.547 1.312,-1.41 3.333,-2.213 5.26,-2.213 1.925,0 3.953,0.803 5.267,2.213 2.302,2.393 2.398,6.485 2.398,9.547 C 2.398,-6.535 2.302,-2.4 0,0 m 4.322,-23.082 c -2.54,-2.541 -6.018,-3.764 -9.589,-3.764 -3.572,0 -7.049,1.223 -9.59,3.764 -3.616,3.615 -4.228,8.035 -4.228,13.494 0,5.447 0.612,9.918 4.228,13.539 2.541,2.537 6.018,3.76 9.59,3.76 3.571,0 7.049,-1.223 9.589,-3.76 3.624,-3.621 4.234,-8.092 4.234,-13.539 0,-5.459 -0.61,-9.879 -4.234,-13.494"
         inkscape:connector-curvature="0" /></g><g
       transform="matrix(1.3333333,0,0,-1.3333333,244.30466,706.74)"
       id="g32"><path
         id="path34"
         style="fill:#231f20;fill-opacity:1;fill-rule:nonzero;stroke:none"
         d="m 0,0 -14.434,22.895 0,-22.895 -5.969,0 0,33.328 6.438,0 14.249,-22.564 0,22.564 5.97,0 L 6.254,0 0,0 z"
         inkscape:connector-curvature="0" /></g><g
       transform="matrix(1.3333333,0,0,-1.3333333,296.09373,687.18267)"
       id="g36"><path
         id="path38"
         style="fill:#231f20;fill-opacity:1;fill-rule:nonzero;stroke:none"
         d="m 0,0 -7.662,0 0,-9.266 7.47,0 c 2.821,0 5.878,1.039 5.878,4.42 C 5.686,-1.273 3.195,0 0,0 m -0.192,13.445 -7.47,0 0,-8.369 7.611,0 c 2.726,0 5.03,0.988 5.03,4.133 0,3.205 -2.442,4.236 -5.171,4.236 m 8.654,-25.902 c -2.587,-1.979 -5.689,-2.258 -8.888,-2.258 l -13.257,0 0,33.375 13.257,0 c 2.68,0 5.455,-0.375 7.71,-1.832 2.446,-1.596 3.855,-4.371 3.855,-7.238 0,-2.723 -1.268,-5.785 -4.085,-7.055 3.143,-1.459 4.79,-4.416 4.79,-7.519 0,-2.961 -0.985,-5.643 -3.382,-7.473"
         inkscape:connector-curvature="0" /></g><g
       transform="matrix(1.3333333,0,0,-1.3333333,339.90759,671.76347)"
       id="g40"><path
         id="path42"
         style="fill:#231f20;fill-opacity:1;fill-rule:nonzero;stroke:none"
         d="m 0,0 c -1.316,1.41 -3.338,2.209 -5.266,2.209 -1.925,0 -3.946,-0.799 -5.263,-2.209 -2.307,-2.4 -2.397,-6.535 -2.397,-9.588 0,-3.062 0.09,-7.154 2.397,-9.547 1.317,-1.41 3.338,-2.213 5.263,-2.213 1.928,0 3.95,0.803 5.266,2.213 2.299,2.393 2.395,6.485 2.395,9.547 C 2.395,-6.535 2.299,-2.4 0,0 m 4.324,-23.082 c -2.539,-2.541 -6.017,-3.764 -9.59,-3.764 -3.572,0 -7.047,1.223 -9.591,3.764 -3.616,3.615 -4.228,8.035 -4.228,13.494 0,5.447 0.612,9.918 4.228,13.539 2.544,2.537 6.019,3.76 9.591,3.76 3.573,0 7.051,-1.223 9.59,-3.76 3.621,-3.621 4.233,-8.092 4.233,-13.539 0,-5.459 -0.612,-9.879 -4.233,-13.494"
         inkscape:connector-curvature="0" /></g><g
       transform="matrix(1.3333333,0,0,-1.3333333,370.27212,672.20614)"
       id="g44"><path
         id="path46"
         style="fill:#231f20;fill-opacity:1;fill-rule:nonzero;stroke:none"
         d="m 0,0 -4.748,-14.053 9.496,0 L 0,0 z m 8.791,-25.898 -2.166,6.386 -13.254,0 -2.166,-6.386 -6.107,0 11.703,33.326 6.633,0 11.703,-33.326 -6.346,0 z"
         inkscape:connector-curvature="0" /></g><g
       transform="matrix(1.3333333,0,0,-1.3333333,219.74479,642.74521)"
       id="g48"><path
         id="path50"
         style="fill:#231f20;fill-opacity:1;fill-rule:nonzero;stroke:none"
         d="m 0,0 c -3.607,-3.672 -8.646,-5.719 -13.816,-5.719 -5.176,0 -10.01,1.705 -13.685,5.381 -5.239,5.244 -5.99,11.715 -5.99,19.604 0,7.9 0.751,14.363 5.99,19.603 3.675,3.672 8.509,5.445 13.685,5.445 5.17,0 10.209,-1.9 13.816,-5.576 2.789,-2.859 4.219,-6.674 4.628,-10.484 l -8.986,0 c -0.201,2.111 -0.955,3.609 -2.174,5.1 -1.57,1.984 -4.294,3.001 -7.284,3.001 -2.796,0 -5.517,-1.162 -7.422,-3.205 -3.337,-3.468 -3.337,-9.457 -3.337,-13.884 0,-4.426 0,-10.412 3.337,-13.887 1.905,-2.037 4.626,-3.197 7.422,-3.197 2.99,0 5.714,1.086 7.284,3.062 1.219,1.494 1.973,3.197 2.174,5.309 l 8.986,0 C 4.219,6.738 2.789,2.861 0,0"
         inkscape:connector-curvature="0" /></g><g
       transform="matrix(1.3333333,0,0,-1.3333333,269.98826,649.18787)"
       id="g52"><path
         id="path54"
         style="fill:#231f20;fill-opacity:1;fill-rule:nonzero;stroke:none"
         d="m 0,0 0,21.033 -19.812,0 0,-21.033 -8.778,0 0,48.264 8.778,0 0,-18.858 19.812,0 0,18.858 8.779,0 L 8.779,0 0,0 z"
         inkscape:connector-curvature="0" /></g><g
       transform="matrix(1.3333333,0,0,-1.3333333,349.18092,649.18787)"
       id="g56"><path
         id="path58"
         style="fill:#231f20;fill-opacity:1;fill-rule:nonzero;stroke:none"
         d="M 0,0 -10.83,17.57 -21.649,0 l -9.464,0 15.185,24.574 -15.044,23.69 9.593,0 10.822,-16.879 10.485,16.879 9.531,0 L -5.381,24.506 9.658,0 0,0 z"
         inkscape:connector-curvature="0" /></g><g
       transform="matrix(1.3333333,0,0,-1.3333333,404.49612,649.18787)"
       id="g60"><path
         id="path62"
         style="fill:#231f20;fill-opacity:1;fill-rule:nonzero;stroke:none"
         d="M 0,0 -10.822,17.57 -21.645,0 l -9.468,0 15.185,24.574 -15.045,23.69 9.6,0 10.822,-16.879 10.489,16.879 9.525,0 L -5.375,24.506 9.666,0 0,0 z"
         inkscape:connector-curvature="0" /></g><g
       transform="matrix(1.3333333,0,0,-1.3333333,461.39186,643.46654)"
       id="g64"><path
         id="path66"
         style="fill:#231f20;fill-opacity:1;fill-rule:nonzero;stroke:none"
         d="m 0,0 c -3.674,-3.678 -9.32,-5.176 -15.244,-5.176 -5.111,0 -10.486,1.362 -14.436,4.969 -2.859,2.594 -5.037,6.678 -5.037,11.234 l 8.987,0 c 0,-2.379 1.089,-4.494 2.519,-5.925 2.043,-2.041 5.313,-2.586 8.098,-2.586 3.338,0 6.531,0.683 8.371,2.586 1.094,1.162 1.908,2.316 1.908,4.632 0,3.541 -2.723,5.174 -5.717,5.715 -3.267,0.615 -7.488,0.75 -10.687,1.289 -6.67,1.096 -12.256,5.453 -12.256,13.485 0,3.816 1.705,7.015 4.224,9.533 3.198,3.127 8.506,5.099 14.157,5.099 5.172,0 10.215,-1.628 13.484,-4.691 2.856,-2.719 4.828,-6.268 4.895,-10.285 l -8.987,0 c -0.064,1.705 -0.953,3.545 -2.109,4.769 -1.566,1.633 -4.764,2.59 -7.348,2.59 -2.72,0 -5.855,-0.621 -7.83,-2.658 -1.017,-1.09 -1.633,-2.314 -1.633,-4.088 0,-3.127 2.043,-4.767 4.895,-5.238 3.066,-0.481 7.363,-0.815 10.488,-1.223 C -2.041,23.006 4.018,18.309 4.018,10.076 4.018,5.58 2.383,2.387 0,0"
         inkscape:connector-curvature="0" /></g><g
       transform="matrix(1.3333333,0,0,-1.3333333,412.08719,669.38067)"
       id="g68"><path
         id="path70"
         style="fill:#231f20;fill-opacity:1;fill-rule:nonzero;stroke:none"
         d="m 0,0 -7.986,0 0,-9.969 8.084,0 c 3.431,0 5.404,1.783 5.404,4.936 C 5.502,-2.354 3.432,0 0,0 m 4.982,-28.02 -5.546,12.594 -7.377,0 0,-12.594 -6.112,0 0,33.329 14.053,0 c 7.947,0 11.564,-4.981 11.564,-10.342 0,-4.463 -2.445,-7.988 -6.111,-9.356 l 6.111,-13.631 -6.582,0 z"
         inkscape:connector-curvature="0" /></g><g
       transform="matrix(1.3333333,0,0,-1.3333333,455.39972,672.07854)"
       id="g72"><path
         id="path74"
         style="fill:#231f20;fill-opacity:1;fill-rule:nonzero;stroke:none"
         d="m 0,0 c -1.129,1.127 -2.77,1.879 -4.699,1.879 l -6.916,0 0,-22.416 6.916,0 c 1.929,0 3.57,0.744 4.699,1.871 2.346,2.354 2.398,6.301 2.398,9.359 C 2.398,-6.252 2.346,-2.354 0,0 m 4.648,-22.426 c -2.205,-2.299 -5.543,-3.568 -9.347,-3.568 l -12.981,0 0,33.332 12.981,0 c 3.804,0 7.142,-1.272 9.347,-3.572 3.432,-3.53 3.905,-8.463 3.905,-13.073 0,-4.605 -0.473,-9.586 -3.905,-13.119"
         inkscape:connector-curvature="0" /></g><path
       id="path76"
       style="fill:#231f20;fill-opacity:1;fill-rule:nonzero;stroke:none"
       d="m 302.21866,649.18801 -11.70667,0 0,-64.352 11.70667,0 0,64.352 z"
       inkscape:connector-curvature="0" /></g></svg>