<?xml version="1.0" encoding="UTF-8" standalone="no"?>
<svg
   xmlns:dc="http://purl.org/dc/elements/1.1/"
   xmlns:cc="http://creativecommons.org/ns#"
   xmlns:rdf="http://www.w3.org/1999/02/22-rdf-syntax-ns#"
   xmlns:svg="http://www.w3.org/2000/svg"
   xmlns="http://www.w3.org/2000/svg"
   xmlns:sodipodi="http://sodipodi.sourceforge.net/DTD/sodipodi-0.dtd"
   xmlns:inkscape="http://www.inkscape.org/namespaces/inkscape"
   viewBox="0 0 646.9024 132.48199"
   height="132.48199"
   width="646.9024"
   xml:space="preserve"
   version="1.1"
   id="svg2"
   inkscape:version="0.48.5 r10040"
   sodipodi:docname="AIR_LOGO Kopie.svg"><sodipodi:namedview
     pagecolor="#ffffff"
     bordercolor="#666666"
     borderopacity="1"
     objecttolerance="10"
     gridtolerance="10"
     guidetolerance="10"
     inkscape:pageopacity="0"
     inkscape:pageshadow="2"
     inkscape:window-width="872"
     inkscape:window-height="662"
     id="namedview3632"
     showgrid="false"
     fit-margin-top="0"
     fit-margin-left="0"
     fit-margin-right="0"
     fit-margin-bottom="0"
     inkscape:zoom="0.51847628"
     inkscape:cx="292.35596"
     inkscape:cy="192.78609"
     inkscape:window-x="0"
     inkscape:window-y="0"
     inkscape:window-maximized="0"
     inkscape:current-layer="svg2" /><metadata
     id="metadata8"><rdf:RDF><cc:Work
         rdf:about=""><dc:format>image/svg+xml</dc:format><dc:type
           rdf:resource="http://purl.org/dc/dcmitype/StillImage" /><dc:title></dc:title></cc:Work></rdf:RDF></metadata><defs
     id="defs6"><clipPath
       id="clipPath78"
       clipPathUnits="userSpaceOnUse"><path
         id="path80"
         d="m 0,841.89 595.275,0 L 595.275,0 0,0 0,841.89 z"
         inkscape:connector-curvature="0" /></clipPath><clipPath
       id="clipPath122"
       clipPathUnits="userSpaceOnUse"><path
         id="path124"
         d="m 0,841.89 595.275,0 L 595.275,0 0,0 0,841.89 z"
         inkscape:connector-curvature="0" /></clipPath><clipPath
       id="clipPath148"
       clipPathUnits="userSpaceOnUse"><path
         id="path150"
         d="m 0,841.89 595.275,0 L 595.275,0 0,0 0,841.89 z"
         inkscape:connector-curvature="0" /></clipPath><clipPath
       id="clipPath204"
       clipPathUnits="userSpaceOnUse"><path
         id="path206"
         d="m 0,841.89 595.275,0 L 595.275,0 0,0 0,841.89 z"
         inkscape:connector-curvature="0" /></clipPath></defs><g
     id="g4244"
     transform="translate(-114.13769,-872.29881)"><g
       transform="matrix(1.3333333,0,0,-1.3333333,241.71501,926.43881)"
       id="g248"><path
         id="path250"
         style="fill:#211d1d;fill-opacity:1;fill-rule:nonzero;stroke:none"
         d="m 0,0 15.944,22.959 48.422,0.43 C 47.69,13.936 23.941,1.256 6.119,-8.812 L 0,0 z m 9.204,-41.674 -38.143,0 19.071,27.463 19.072,-27.463 z M -19.736,0 l -28.939,-41.674 -23.407,0 40.643,58.527 L -19.736,0 z m 120.26,33.855 c -1.161,3.212 -4.211,5.351 -7.625,5.35 L 11.7,39.167 C 9.045,39.165 6.56,37.866 5.046,35.687 L -9.868,14.209 -24.782,35.687 c -1.514,2.179 -4.001,3.48 -6.657,3.48 -2.656,0 -5.143,-1.301 -6.657,-3.48 l -56.139,-80.843 c -1.721,-2.479 -1.923,-5.706 -0.525,-8.379 1.398,-2.675 4.165,-4.35 7.182,-4.35 l 43.029,0 0.006,0 69.243,0 c 3.017,0 5.784,1.677 7.182,4.35 1.398,2.673 1.196,5.9 -0.525,8.379 l -15.951,22.97 c 81.339,45.944 81.94,46.438 82.678,47.052 2.626,2.183 3.602,5.779 2.44,8.989"
         inkscape:connector-curvature="0" /></g><g
       transform="matrix(1.3333333,0,0,-1.3333333,415.95261,922.80334)"
       id="g252"><path
         id="path254"
         style="fill:#211d1d;fill-opacity:1;fill-rule:nonzero;stroke:none"
         d="m 0,0 5.093,-14.991 7.605,0 -18.652,51.512 -7.891,0 -19.367,-51.512 7.173,0 L -20.659,0 0,0 z m -18.507,6.157 8.249,22.683 0.143,0 7.604,-22.683 -15.996,0 z"
         inkscape:connector-curvature="0" /></g><path
       id="path256"
       style="fill:#211d1d;fill-opacity:1;fill-rule:nonzero;stroke:none"
       d="m 447.94328,942.79107 -9.28134,0 0,-68.708 9.28134,0 0,68.708 z"
       inkscape:connector-curvature="0" /><g
       transform="matrix(1.3333333,0,0,-1.3333333,468.14141,913.32934)"
       id="g258"><path
         id="path260"
         style="fill:#211d1d;fill-opacity:1;fill-rule:nonzero;stroke:none"
         d="m 0,0 16.879,0 c 8.357,0 9.221,-4.938 9.221,-9.164 0,-1.934 0.214,-9.736 1.218,-12.922 l 8.541,0 0,1.181 c -2.152,1.217 -2.511,2.291 -2.584,5.154 l -0.431,9.309 c -0.287,7.166 -3.227,8.466 -6.17,9.694 3.287,1.951 7.176,4.747 7.176,12.316 0,10.892 -8.495,13.855 -16.971,13.855 l -23.84,0 0,-51.509 6.961,0 L 0,0 z m 0,23.425 17.381,0 c 3.449,0 9.267,-0.644 9.267,-8.571 0,-7.571 -5.388,-8.855 -10.486,-8.855 L 0,5.999 0,23.425 z"
         inkscape:connector-curvature="0" /></g><g
       transform="matrix(1.3333333,0,0,-1.3333333,532.46954,942.7916)"
       id="g262"><path
         id="path264"
         style="fill:#211d1d;fill-opacity:1;fill-rule:nonzero;stroke:none"
         d="m 0,0 -6.961,0 0,51.531 35.674,0 0,-6.157 -28.713,0 0,-15.793 25.268,0 0,-6.158 L 0,23.423 0,0 z"
         inkscape:connector-curvature="0" /></g><g
       transform="matrix(1.3333333,0,0,-1.3333333,585.19874,934.58334)"
       id="g266"><path
         id="path268"
         style="fill:#211d1d;fill-opacity:1;fill-rule:nonzero;stroke:none"
         d="m 0,0 26.129,0 0,-6.156 -33.088,0 0,51.531 6.959,0 L 0,0 z"
         inkscape:connector-curvature="0" /></g><g
       transform="matrix(1.3333333,0,0,-1.3333333,677.14407,908.43747)"
       id="g270"><path
         id="path272"
         style="fill:#211d1d;fill-opacity:1;fill-rule:nonzero;stroke:none"
         d="m 0,0 c 0,11.118 -5.904,27.104 -25.15,27.104 -19.246,0 -25.151,-15.986 -25.151,-27.104 0,-11.119 5.905,-27.104 25.151,-27.104 C -5.904,-27.104 0,-11.119 0,0 m -7.201,0 c 0,-12.125 -6.75,-20.948 -17.949,-20.948 -11.2,0 -17.948,8.823 -17.948,20.948 0,12.123 6.748,20.947 17.948,20.947 11.199,0 17.949,-8.824 17.949,-20.947"
         inkscape:connector-curvature="0" /></g><g
       transform="matrix(1.3333333,0,0,-1.3333333,701.42007,942.7812)"
       id="g274"><path
         id="path276"
         style="fill:#211d1d;fill-opacity:1;fill-rule:nonzero;stroke:none"
         d="m 0,0 -7.318,0 -13.422,51.521 7.535,0 9.619,-41.901 0.141,0 11.556,41.901 7.608,0 11.554,-41.901 0.143,0 9.617,41.901 7.682,0 L 31.148,0 l -7.32,0 -11.769,42.692 -0.145,0 L 0,0 z"
         inkscape:connector-curvature="0" /></g><g
       transform="matrix(1.3333333,0,0,-1.3333333,334.02554,971.2708)"
       id="g278"><path
         id="path280"
         style="fill:#211d1d;fill-opacity:1;fill-rule:nonzero;stroke:none"
         d="m 0,0 c -0.238,5.293 -4.608,6.963 -8.456,6.963 -2.898,0 -7.791,-0.812 -7.791,-6.01 0,-2.908 2.042,-3.861 4.038,-4.338 l 9.76,-2.242 c 4.432,-1.05 7.77,-3.719 7.77,-9.154 0,-8.107 -7.532,-10.348 -13.392,-10.348 -6.337,0 -8.814,1.906 -10.34,3.289 -2.909,2.622 -3.482,5.485 -3.482,8.679 l 4.341,0 c 0,-6.198 5.05,-8.011 9.433,-8.011 3.335,0 8.958,0.859 8.958,5.771 0,3.575 -1.668,4.719 -7.3,6.055 l -6.983,1.621 c -2.233,0.525 -7.285,2.098 -7.285,8.059 0,5.341 3.481,10.585 11.75,10.585 C 2.958,10.919 4.15,3.769 4.341,0 L 0,0 z"
         inkscape:connector-curvature="0" /></g><g
       transform="matrix(1.3333333,0,0,-1.3333333,354.69421,1003.5689)"
       id="g282"><path
         id="path284"
         style="fill:#211d1d;fill-opacity:1;fill-rule:nonzero;stroke:none"
         d="m 0,0 -4.612,0 0,34.237 4.612,0 0,-16.593 16.593,16.593 6.389,0 L 8.726,20.409 23.363,0 17.355,0 5.388,17.167 0,12.018 0,0 z"
         inkscape:connector-curvature="0" /></g><g
       transform="matrix(1.3333333,0,0,-1.3333333,414.65768,990.31507)"
       id="g286"><path
         id="path288"
         style="fill:#211d1d;fill-opacity:1;fill-rule:nonzero;stroke:none"
         d="m 0,0 3.385,-9.94 5.056,0 -12.399,34.202 -5.246,0 -12.876,-34.202 4.769,0 L -13.734,0 0,0 z m -12.304,4.093 5.484,15.067 0.095,0 5.056,-15.067 -10.635,0 z"
         inkscape:connector-curvature="0" /></g><g
       transform="matrix(1.3333333,0,0,-1.3333333,420.70261,957.9192)"
       id="g290"><path
         id="path292"
         style="fill:#211d1d;fill-opacity:1;fill-rule:nonzero;stroke:none"
         d="m 0,0 27.784,0 0,-4.094 -11.586,0 0,-30.143 -4.611,0 0,30.143 L 0,-4.094 0,0 z"
         inkscape:connector-curvature="0" /></g><g
       transform="matrix(1.3333333,0,0,-1.3333333,496.00341,1003.5689)"
       id="g294"><path
         id="path296"
         style="fill:#211d1d;fill-opacity:1;fill-rule:nonzero;stroke:none"
         d="m 0,0 -25.258,0 0,34.237 24.924,0 0,-4.093 -20.312,0 0,-10.523 18.74,0 0,-4.094 -18.74,0 0,-11.433 L 0,4.094 0,0 z"
         inkscape:connector-curvature="0" /></g><g
       transform="matrix(1.3333333,0,0,-1.3333333,510.47221,982.25774)"
       id="g298"><path
         id="path300"
         style="fill:#211d1d;fill-opacity:1;fill-rule:nonzero;stroke:none"
         d="m 0,0 9.123,0 c 3.775,0 8.025,-0.955 8.025,-5.773 0,-3.816 -2.435,-6.249 -7.259,-6.249 L 0,-12.022 0,0 z m -4.613,-15.979 14.74,0 c 7.594,0 11.635,4.625 11.635,10.111 0,5.868 -3.948,7.44 -6.188,8.347 3.754,1.764 4.563,4.907 4.563,7.146 0,4.669 -3.28,8.627 -9.676,8.627 l -15.074,0 0,-34.231 z M 0,14.294 l 8.406,0 c 5.16,0 7.119,-1.811 7.119,-5.003 0,-4.19 -2.724,-5.524 -7.166,-5.524 L 0,3.767 0,14.294 z"
         inkscape:connector-curvature="0" /></g><g
       transform="matrix(1.3333333,0,0,-1.3333333,587.27941,980.74347)"
       id="g302"><path
         id="path304"
         style="fill:#211d1d;fill-opacity:1;fill-rule:nonzero;stroke:none"
         d="M 0,0 C 0,7.396 -3.891,18.027 -16.664,18.027 -29.439,18.027 -33.328,7.396 -33.328,0 c 0,-7.397 3.889,-18.028 16.664,-18.028 C -3.891,-18.028 0,-7.397 0,0 m -4.744,0 c 0,-8.065 -4.483,-13.935 -11.92,-13.935 -7.44,0 -11.92,5.87 -11.92,13.935 0,8.064 4.48,13.934 11.92,13.934 7.437,0 11.92,-5.87 11.92,-13.934"
         inkscape:connector-curvature="0" /></g><g
       transform="matrix(1.3333333,0,0,-1.3333333,616.355,990.31507)"
       id="g306"><path
         id="path308"
         style="fill:#211d1d;fill-opacity:1;fill-rule:nonzero;stroke:none"
         d="m 0,0 3.385,-9.94 5.054,0 -12.398,34.202 -5.246,0 -12.875,-34.202 4.769,0 L -13.734,0 0,0 z m -12.303,4.093 5.485,15.067 0.093,0 5.055,-15.067 -10.633,0 z"
         inkscape:connector-curvature="0" /></g><g
       transform="matrix(1.3333333,0,0,-1.3333333,639.743,983.98827)"
       id="g310"><path
         id="path312"
         style="fill:#211d1d;fill-opacity:1;fill-rule:nonzero;stroke:none"
         d="m 0,0 11.191,0 c 5.516,0 6.09,-3.287 6.09,-6.099 0,-1.285 0.141,-6.478 0.807,-8.58 l 5.664,0 0,0.768 c -1.432,0.809 -1.67,1.524 -1.717,3.431 l -0.285,6.192 c -0.189,4.765 -2.139,5.623 -4.09,6.433 2.19,1.289 4.752,3.148 4.752,8.201 0,7.248 -5.599,9.204 -11.221,9.204 l -15.804,0 0,-34.229 4.613,0 L 0,0 z m 0,15.592 11.525,0 c 2.286,0 6.145,-0.43 6.145,-5.723 0,-5.053 -3.572,-5.912 -6.955,-5.912 L 0,3.957 0,15.592 z"
         inkscape:connector-curvature="0" /></g><g
       transform="matrix(1.3333333,0,0,-1.3333333,678.79247,1003.5637)"
       id="g314"><path
         id="path316"
         style="fill:#211d1d;fill-opacity:1;fill-rule:nonzero;stroke:none"
         d="m 0,0 13.652,0 c 11.223,0 14.543,9.917 14.543,17.591 0,9.868 -5.455,16.64 -14.353,16.64 L 0,34.231 0,0 z m 4.613,30.273 8.612,0 c 6.279,0 10.228,-4.339 10.228,-12.968 0,-8.627 -3.902,-13.348 -9.896,-13.348 l -8.944,0 0,26.316 z"
         inkscape:connector-curvature="0" /></g><g
       transform="matrix(1.3333333,0,0,-1.3333333,749.4878,971.2708)"
       id="g318"><path
         id="path320"
         style="fill:#211d1d;fill-opacity:1;fill-rule:nonzero;stroke:none"
         d="m 0,0 c -0.238,5.293 -4.609,6.963 -8.457,6.963 -2.897,0 -7.791,-0.812 -7.791,-6.01 0,-2.908 2.043,-3.861 4.039,-4.338 l 9.76,-2.242 c 4.431,-1.05 7.769,-3.719 7.769,-9.154 0,-8.107 -7.531,-10.348 -13.392,-10.348 -6.336,0 -8.813,1.906 -10.338,3.289 -2.91,2.622 -3.483,5.485 -3.483,8.679 l 4.34,0 c 0,-6.198 5.051,-8.011 9.434,-8.011 3.336,0 8.957,0.859 8.957,5.771 0,3.575 -1.668,4.719 -7.299,6.055 l -6.984,1.621 c -2.233,0.525 -7.284,2.098 -7.284,8.059 0,5.341 3.479,10.585 11.749,10.585 C 2.957,10.919 4.148,3.769 4.34,0 L 0,0 z"
         inkscape:connector-curvature="0" /></g></g></svg>