<?xml version="1.0" encoding="UTF-8" standalone="no"?>
<!-- Created with Inkscape (http://www.inkscape.org/) -->

<svg
   xmlns:dc="http://purl.org/dc/elements/1.1/"
   xmlns:cc="http://creativecommons.org/ns#"
   xmlns:rdf="http://www.w3.org/1999/02/22-rdf-syntax-ns#"
   xmlns:svg="http://www.w3.org/2000/svg"
   xmlns="http://www.w3.org/2000/svg"
   xmlns:sodipodi="http://sodipodi.sourceforge.net/DTD/sodipodi-0.dtd"
   xmlns:inkscape="http://www.inkscape.org/namespaces/inkscape"
   width="800"
   height="262"
   id="svg2"
   version="1.1"
   inkscape:version="0.48.4 r9939"
   sodipodi:docname="header-road.svg">
  <defs
     id="defs4" />
  <sodipodi:namedview
     id="base"
     pagecolor="#ffffff"
     bordercolor="#666666"
     borderopacity="1.0"
     inkscape:pageopacity="0.0"
     inkscape:pageshadow="2"
     inkscape:zoom="1.979899"
     inkscape:cx="275.25312"
     inkscape:cy="108.99182"
     inkscape:document-units="px"
     inkscape:current-layer="layer1"
     showgrid="true"
     fit-margin-top="0"
     fit-margin-left="0"
     fit-margin-right="0"
     fit-margin-bottom="0"
     inkscape:window-width="1343"
     inkscape:window-height="840"
     inkscape:window-x="31"
     inkscape:window-y="16"
     inkscape:window-maximized="0"
     objecttolerance="10000">
    <inkscape:grid
       type="xygrid"
       id="grid2985"
       empspacing="5"
       visible="true"
       enabled="true"
       snapvisiblegridlinesonly="true"
       originx="-140px"
       originy="-769.98718px" />
  </sodipodi:namedview>
  <metadata
     id="metadata7">
    <rdf:RDF>
      <cc:Work
         rdf:about="">
        <dc:format>image/svg+xml</dc:format>
        <dc:type
           rdf:resource="http://purl.org/dc/dcmitype/StillImage" />
        <dc:title />
      </cc:Work>
    </rdf:RDF>
  </metadata>
  <g
     inkscape:label="Layer 1"
     inkscape:groupmode="layer"
     id="layer1"
     transform="translate(-140,-20.375)">
    <g
       id="g3887"
       transform="matrix(1.0005956,0,0,1.0012634,-0.08338886,-0.35676464)">
      <path
         sodipodi:nodetypes="cccccccc"
         inkscape:connector-curvature="0"
         id="path3100"
         d="m 696.19048,160.68605 86.90476,-86.904761 34.76191,52.142851 86.90475,-86.904755 34.76191,52.142857 0,191.190478 -243.33333,0 z"
         style="fill:#44aa00;stroke:none" />
      <path
         sodipodi:nodetypes="cccscc"
         inkscape:connector-curvature="0"
         d="m 730.95238,178.06701 c 0,8.69047 -434.52381,34.7619 -590.95238,104.28571 l 625.71428,0 C 748.33333,230.20986 870,195.44796 870,178.06701 870,160.68605 696.19048,160.68605 696.19048,160.68605 z"
         style="fill:#eeeeee;fill-opacity:1;stroke:none"
         id="path3077" />
      <path
         sodipodi:nodetypes="sccscs"
         inkscape:connector-curvature="0"
         d="m 800.47619,178.06701 c 0,8.69047 -243.33334,17.38095 -382.38095,104.28571 l 69.52381,0 c 139.04762,-86.90476 312.85714,-95.59524 312.85714,-104.28571 0,-8.69049 -86.90476,-8.69049 -86.90476,-8.69049 0,0 86.90476,0 86.90476,8.69049 z"
         style="fill:#999999;stroke:none"
         id="path3081" />
      <path
         sodipodi:nodetypes="cccccccccccc"
         inkscape:connector-curvature="0"
         id="path3086"
         d="M 591.90476,21.660715 505,125.94643 452.85715,73.803572 418.09524,125.94643 331.19048,56.422619 261.66667,125.94643 140,91.162242 140,282.375 c 129.77524,-57.67789 450.72694,-85.45095 556.40774,-98.20238 l 34.54464,-6.08334 c 0,-0.0222 -15.31696,-17.218 -15.31696,-17.218 z"
         style="fill:#44aa00;stroke:none" />
    </g>
  </g>
</svg>
