<?xml version="1.0" encoding="UTF-8" standalone="no"?>
<!-- Created with Inkscape (http://www.inkscape.org/) -->

<svg
   xmlns:dc="http://purl.org/dc/elements/1.1/"
   xmlns:cc="http://creativecommons.org/ns#"
   xmlns:rdf="http://www.w3.org/1999/02/22-rdf-syntax-ns#"
   xmlns:svg="http://www.w3.org/2000/svg"
   xmlns="http://www.w3.org/2000/svg"
   xmlns:sodipodi="http://sodipodi.sourceforge.net/DTD/sodipodi-0.dtd"
   xmlns:inkscape="http://www.inkscape.org/namespaces/inkscape"
   id="svg3055"
   version="1.1"
   inkscape:version="0.48.4 r9939"
   width="200"
   height="117"
   sodipodi:docname="header-skater.svg">
  <metadata
     id="metadata3061">
    <rdf:RDF>
      <cc:Work
         rdf:about="">
        <dc:format>image/svg+xml</dc:format>
        <dc:type
           rdf:resource="http://purl.org/dc/dcmitype/StillImage" />
        <dc:title />
      </cc:Work>
    </rdf:RDF>
  </metadata>
  <defs
     id="defs3059" />
  <sodipodi:namedview
     pagecolor="#ffffff"
     bordercolor="#666666"
     borderopacity="1"
     objecttolerance="10"
     gridtolerance="10"
     guidetolerance="10"
     inkscape:pageopacity="0"
     inkscape:pageshadow="2"
     inkscape:window-width="1170"
     inkscape:window-height="778"
     id="namedview3057"
     showgrid="false"
     fit-margin-top="0"
     fit-margin-left="0"
     fit-margin-right="0"
     fit-margin-bottom="0"
     inkscape:zoom="5.2758655"
     inkscape:cx="101.40267"
     inkscape:cy="70.293367"
     inkscape:window-x="85"
     inkscape:window-y="47"
     inkscape:window-maximized="0"
     inkscape:current-layer="svg3055" />
  <path
     style="fill:#ff0000"
     d="m 173.43332,0.38997235 c 4.6446,0.52298 7.62106,2.59772995 10.46688,7.62702995 4.13937,7.3153407 3.90105,11.3192407 2.60548,15.6963907 -1.29556,4.37715 -5.9736,13.62456 -8.8847,16.79443 -2.9111,3.16988 -5.6151,4.28647 -8.78495,4.26756 0,0 -2.68487,1.98538 -2.80849,6.60394 -0.12362,4.61855 -1.84267,10.56127 -1.03566,14.13607 0.80701,3.5748 3.19209,15.36492 3.45914,17.53651 0.26705,2.17158 5.3452,15.88859 5.3452,15.88859 0,0 3.53362,3.118527 5.60785,3.641487 2.07422,0.52295 18.73159,1.3222 20.00624,2.54862 1.27464,1.22643 0.90959,3.49514 -5.44166,3.69265 -6.35125,0.19751 -6.65077,1.14939 -8.91013,1.40562 -2.25937,0.25623 -9.82872,0.88724 -12.5889,-1.19821 -2.7567,-2.08283 -4.14112,-4.15782 -4.10378,-5.056 0,0 -11.60673,-16.481347 -12.63257,-19.726667 -1.02583,-3.24532 -4.32411,-13.36713 -4.82204,-15.8345 -0.49793,-2.46737 -2.81171,-6.05022 -1.72037,-15.62886 0,0 -9.94294,6.17026 -17.35,4.81187 0,0 4.22784,2.56578 6.29496,5.31565 2.06712,2.74986 4.54423,5.8225 5.4149,8.15758 0.87068,2.33509 0.358,7.17334 -1.71128,9.50255 -2.06927,2.32922 -7.64767,4.22742 -11.71668,4.70619 -4.06901,0.47877 -5.73433,0.27516 -7.6126,-1.11477 0,0 -6.34989,-0.52398 -8.05137,-1.17923 0,0 1.2085,2.4751 1.40816,3.74726 0,0 3.30039,2.09065 4.10616,4.95241 0.80577,2.86175 0.41565,5.31738 -0.96469,6.39483 0,0 8.39812,0.58179 10.2427,1.522 1.84458,0.940217 1.54642,1.883487 0.6807,2.400577 -0.86573,0.51709 -2.27921,1.14953 -3.72694,1.32756 l 0.15415,1.86819 c 0.0551,6.6e-4 0.1096,0.008 0.165,0.01 0.66248,-0.1906 1.37098,-0.25698 2.09836,-0.16734 2.89023,0.35618 4.94994,2.99491 4.59375,5.88514 -0.33864,2.74788 -2.74278,4.73128 -5.46179,4.61476 -0.96055,0.10591 -1.60067,0.27323 -2.09837,0.16734 -1.77006,-0.3766 -3.2634,-1.32961 -4.03596,-2.82445 l -5.33907,0.16273 c -0.65063,2.5269 -3.09034,4.24214 -5.74949,3.91443 -0.79327,-0.0408 -1.77664,-0.0468 -2.57569,-0.006 -2.89023,-0.35619 -4.94993,-2.99492 -4.59375,-5.88515 0.0867,-0.70311 0.30658,-1.35585 0.63353,-1.93734 -2.13168,-0.40667 -11.551097,-2.25239 -12.438039,-3.43397 -0.995081,-1.32563 -2.204345,-2.68183 -2.204345,-2.68183 0,0 -33.712365,-2.27589 -38.430132,-2.67907 -4.717773,-0.403187 -29.73079,-3.217237 -29.73079,-3.217237 l -2.37667,4.870277 2.187402,0.29035 c 0.715451,-1.93301 2.541513,-3.267347 4.627642,-3.325467 0.75678,-0.29171 1.59504,-0.39559 2.456243,-0.28946 2.796793,0.34468 4.787154,2.882717 4.442485,5.679507 -0.313429,2.54328 -2.44768,4.41217 -4.935142,4.47189 -0.752296,0.28688 -1.582307,0.40754 -2.437037,0.30221 -2.038252,-0.25119 -3.642328,-1.67871 -4.231546,-3.51344 l -8.119398,0.89014 c -0.777035,2.21434 -3.0087948,3.67041 -5.4332575,3.37163 -1.0052665,-0.01 -2.0008557,0.0582 -2.8929254,-0.0449 -2.7967932,-0.34467 -4.78589301,-2.89295 -4.44122485,-5.68974 0.34467144,-2.7968 2.89294515,-4.785897 5.68974165,-4.441217 0.9120741,0.0427 2.0008524,-0.0582 2.8929221,0.0448 0.4169025,0.0514 0.8127052,0.15954 1.1886124,0.302307 -0.6160198,-0.839017 -2.2609431,-3.102957 -2.3874629,-3.556277 -0.154542,-0.55371 0.136847,-2.20632 0.136847,-2.20632 0,0 -2.6127511,-0.4993 -2.5707197,-1.56346 0.042031,-1.06415 2.5099245,-0.85421 3.9582645,-0.67572 1.4483397,0.17848 19.2068387,1.44102 20.4519607,1.4608 1.245125,0.0198 8.549956,0.33685 8.549956,0.33685 0,0 -2.909954,-2.01228 -3.03328,-3.54237 -0.123326,-1.53009 3.155398,-10.79957 2.734428,-13.16835 -0.771054,-5.36898 0.336383,-10.6501 1.576301,-12.11636 0.870964,-1.02997 4.847362,0.67764 8.799087,0.92854 3.757616,0.2403 6.819901,0.0389 7.719939,0.32807 0.900035,0.28913 3.205444,3.99991 3.205444,3.99991 0,0 12.349027,4.63963 14.006614,5.28947 1.657586,0.64983 6.573704,0.86207 6.573704,0.86207 0,0 -5.624215,-5.37081 -6.337878,-5.72609 -0.713663,-0.35529 -7.943205,-4.57216 -7.999255,-13.151 0.02554,-3.79546 1.411122,-7.34493 0.884969,-16.95959 -0.674759,-12.69074 11.81906,-17.93081 11.516133,-17.83107 0,0 -1.552725,-2.59832 2.727848,-4.43225 4.280576,-1.83392 7.365432,-4.1216 10.140647,-4.22514 2.775212,-0.10355 17.105752,3.66683 20.209822,3.42559 3.10408,-0.24124 19.19151,-2.84586 24.98009,-1.73149 5.78857,1.11437 12.06866,2.28479 16.40642,3.43475 0,0 4.42788,-17.8621707 13.8588,-18.71628065 2.94717,-0.26691 5.40338,-0.35052 7.51455,-0.1128 z M 65.401208,85.530213 c 0,0 -1.390118,1.59341 -3.39161,1.47277 -2.001493,-0.12063 -5.388125,-2.30544 -5.388125,-2.30544 -0.138559,0.61304 -1.379224,0.40141 -1.379224,0.40141 0,0 -0.302062,0.97224 -0.950717,2.65662 -0.648657,1.68438 -3.424549,1.65571 -3.424549,1.65571 0,0 0.397595,0.36718 1.540404,1.83126 1.142807,1.46407 0.663476,2.79322 0.663476,2.79322 1.326386,-0.0256 19.579321,1.20781 19.579321,1.20781 0,0 -1.43052,-1.68375 -1.519037,-3.52198 -0.08852,-1.83823 0.298885,-2.42529 0.298885,-2.42529 z m 50.477672,21.336317 c 0,0 -0.21861,0.75907 -0.7227,1.39652 0.36936,0.42399 0.66453,0.90639 0.88363,1.42827 l 1.53986,-0.69328 z"
     id="path3065"
     inkscape:connector-curvature="0"
     sodipodi:nodetypes="sssscssscssssscssccsssscccscsscccsscsccccscscsccccsscsccccscccscssscscscscscscccsssscsscsccscsccsccccccc" />
</svg>
