<?xml version="1.0" encoding="UTF-8" standalone="no"?>
<!-- Created with Inkscape (http://www.inkscape.org/) -->

<svg
   xmlns:dc="http://purl.org/dc/elements/1.1/"
   xmlns:cc="http://creativecommons.org/ns#"
   xmlns:rdf="http://www.w3.org/1999/02/22-rdf-syntax-ns#"
   xmlns:svg="http://www.w3.org/2000/svg"
   xmlns="http://www.w3.org/2000/svg"
   xmlns:sodipodi="http://sodipodi.sourceforge.net/DTD/sodipodi-0.dtd"
   xmlns:inkscape="http://www.inkscape.org/namespaces/inkscape"
   width="460"
   height="150"
   id="svg2"
   version="1.1"
   inkscape:version="0.48.4 r9939"
   sodipodi:docname="header-road.svg">
  <defs
     id="defs4" />
  <sodipodi:namedview
     id="base"
     pagecolor="#ffffff"
     bordercolor="#666666"
     borderopacity="1.0"
     inkscape:pageopacity="0.0"
     inkscape:pageshadow="2"
     inkscape:zoom="1.4"
     inkscape:cx="276.35841"
     inkscape:cy="-0.73051672"
     inkscape:document-units="px"
     inkscape:current-layer="layer1"
     showgrid="true"
     fit-margin-top="0"
     fit-margin-left="0"
     fit-margin-right="0"
     fit-margin-bottom="0"
     inkscape:window-width="1343"
     inkscape:window-height="840"
     inkscape:window-x="31"
     inkscape:window-y="16"
     inkscape:window-maximized="0">
    <inkscape:grid
       type="xygrid"
       id="grid2985"
       empspacing="5"
       visible="true"
       enabled="true"
       snapvisiblegridlinesonly="true"
       originx="-140px"
       originy="-769.98718px" />
  </sodipodi:namedview>
  <metadata
     id="metadata7">
    <rdf:RDF>
      <cc:Work
         rdf:about="">
        <dc:format>image/svg+xml</dc:format>
        <dc:type
           rdf:resource="http://purl.org/dc/dcmitype/StillImage" />
        <dc:title></dc:title>
      </cc:Work>
    </rdf:RDF>
  </metadata>
  <g
     inkscape:label="Layer 1"
     inkscape:groupmode="layer"
     id="layer1"
     transform="translate(-140,-132.375)">
    <path
       style="fill:#44aa00;stroke:none"
       d="m 460,212.36218 50,-50 20,30 50,-50 20,30 0,110 -140,0 z"
       id="path3100"
       inkscape:connector-curvature="0"
       sodipodi:nodetypes="cccccccc" />
    <path
       id="path3077"
       style="fill:#e6e6e6;stroke:none"
       d="m 480,222.36218 c 0,5 -250,20 -340,60 l 360,0 c -10,-30 60,-50 60,-60 0,-10 -100,-10 -100,-10 z"
       inkscape:connector-curvature="0"
       sodipodi:nodetypes="cccscc" />
    <path
       id="path3081"
       style="fill:#999999;stroke:none"
       d="m 520,222.36218 c 0,5 -140,10 -220,60 l 40,0 c 80,-50 180,-55 180,-60 0,-5 -50,-5 -50,-5 0,0 50,0 50,5 z"
       inkscape:connector-curvature="0"
       sodipodi:nodetypes="sccscs" />
    <path
       style="fill:#44aa00;stroke:none"
       d="m 400,132.375 -50,60 -30,-30 -20,30 -50,-40 -40,40 -70,-20.01282 0,110.01282 c 74.66521,-33.18454 259.32235,-49.16356 320.125,-56.5 l 19.875,-3.5 c 0,-0.0128 -8.8125,-9.90625 -8.8125,-9.90625 z"
       id="path3086"
       inkscape:connector-curvature="0"
       sodipodi:nodetypes="cccccccccccc" />
  </g>
</svg>
