<?xml version="1.0" encoding="UTF-8" standalone="no"?>
<svg
   xmlns:dc="http://purl.org/dc/elements/1.1/"
   xmlns:cc="http://creativecommons.org/ns#"
   xmlns:rdf="http://www.w3.org/1999/02/22-rdf-syntax-ns#"
   xmlns:svg="http://www.w3.org/2000/svg"
   xmlns="http://www.w3.org/2000/svg"
   xmlns:sodipodi="http://sodipodi.sourceforge.net/DTD/sodipodi-0.dtd"
   xmlns:inkscape="http://www.inkscape.org/namespaces/inkscape"
   viewBox="0 0 400 137.51795"
   height="137.51796"
   width="400"
   xml:space="preserve"
   version="1.1"
   id="svg2"
   inkscape:version="0.48.5 r10040"
   sodipodi:docname="header-bwt.svg"
   inkscape:export-filename="/Users/jaspervdj/Desktop/bwt-logos/bwt-logo-medium.png"
   inkscape:export-xdpi="109.71"
   inkscape:export-ydpi="109.71"><sodipodi:namedview
     pagecolor="#ffffff"
     bordercolor="#666666"
     borderopacity="1"
     objecttolerance="10"
     gridtolerance="10"
     guidetolerance="10"
     inkscape:pageopacity="0"
     inkscape:pageshadow="2"
     inkscape:window-width="1166"
     inkscape:window-height="716"
     id="namedview3269"
     showgrid="false"
     fit-margin-top="10"
     fit-margin-left="10"
     fit-margin-right="10"
     fit-margin-bottom="10"
     inkscape:zoom="0.5"
     inkscape:cx="-17.900532"
     inkscape:cy="-49.197627"
     inkscape:window-x="73"
     inkscape:window-y="62"
     inkscape:window-maximized="0"
     inkscape:current-layer="svg2" /><metadata
     id="metadata8"><rdf:RDF><cc:Work
         rdf:about=""><dc:format>image/svg+xml</dc:format><dc:type
           rdf:resource="http://purl.org/dc/dcmitype/StillImage" /><dc:title></dc:title></cc:Work></rdf:RDF></metadata><defs
     id="defs6"><clipPath
       id="clipPath16"
       clipPathUnits="userSpaceOnUse"><path
         id="path18"
         d="m 0,841.89 595.276,0 L 595.276,0 0,0 0,841.89 z"
         inkscape:connector-curvature="0" /></clipPath></defs><g
     id="g3894"
     transform="matrix(0.47499999,0,0,0.47499999,0.5000002,0.50195638)"><g
       style="fill:#bb2211;fill-opacity:1"
       transform="matrix(1.7456476,0,0,-1.7456476,701.68744,242.57917)"
       id="g20"><path
         id="path22"
         style="fill:#bb2211;fill-opacity:1;fill-rule:nonzero;stroke:none"
         d="m 0,0 c -6.968,-0.67 -6.934,25.934 -2.199,30.239 0.142,0.135 0.248,0.202 0.437,0.283 C 5.279,33.526 7.453,0.721 0,0 m -1.979,38.796 c -6.902,-1.454 -9.82,-12.206 -9.239,-23.678 0.553,-10.966 4.405,-25.878 12.972,-24.242 1.459,0.273 3.494,1.826 4.625,3.421 7.168,10.112 4.84,47.281 -8.358,44.499"
         inkscape:connector-curvature="0" /></g><g
       style="fill:#bb2211;fill-opacity:1"
       transform="matrix(1.7456476,0,0,-1.7456476,557.67326,53.655407)"
       id="g24"><path
         id="path26"
         style="fill:#bb2211;fill-opacity:1;fill-rule:nonzero;stroke:none"
         d="m 0,0 c 4.028,-0.544 4.042,9.921 1.94,13.698 -4.224,1.215 -17.388,2.782 -18.377,-1.802 -0.653,-3.034 -0.199,-6.321 1.313,-10.666 4.48,-0.821 4.312,-6.19 4.719,-11.418 0.938,-12.037 0.792,-28.651 3.072,-38.546 -1.376,-0.456 -2.93,-0.731 -3.535,-1.898 -0.263,-2.933 -0.87,-6.674 -0.042,-9.57 2.927,-3.261 13.351,-2.084 17.228,-0.151 1.853,5.679 -1.488,11.071 -5.793,12.577 -0.712,10.129 -2.787,20.759 -2.455,30.768 4.681,-4.39 19.039,-25.455 21.841,-31.208 -0.974,-2.963 0.152,-10.133 1.213,-13.085 3.16,-1.785 11.207,-1.153 14.898,0.553 -0.245,2.49 0.345,11.654 -0.685,12.674 -1.174,1.156 -2.548,0.282 -3.283,1.818 -2.468,5.109 -1.375,17.056 -2.251,24.602 -1.035,8.928 -1.283,16.043 -1.934,24.659 1.035,1.109 2.853,-0.161 3.421,1.37 -0.076,3.331 0.043,9.385 -1.706,10.957 -4.532,1.167 -12.29,0.106 -16.096,-1.6 C 12.704,2.415 13.979,2.415 18.445,2.415 19.795,-7.761 20.402,-20.805 21.042,-30.52 13.745,-21.043 5.624,-11.048 0,0"
         inkscape:connector-curvature="0" /></g><g
       style="fill:#bb2211;fill-opacity:1"
       transform="matrix(1.7456476,0,0,-1.7456476,734.923,136.6641)"
       id="g28"><path
         id="path30"
         style="fill:#bb2211;fill-opacity:1;fill-rule:nonzero;stroke:none"
         d="m 0,0 c -2.295,5.186 -0.879,16.944 -1.506,24.512 -0.734,8.959 -0.674,18.542 -1.035,27.171 1.068,1.075 2.922,0.03 3.545,1.537 0.031,3.332 0.267,9.003 -1.43,10.629 -4.486,1.311 -12.275,0.523 -16.138,-1.061 -0.952,-11.35 0.736,-12.456 4.304,-12.456 1.014,-10.218 1.467,-24.616 1.793,-34.34 -7.283,9.496 -14.829,20.683 -20.085,31.909 3.738,-0.623 2.713,10.663 0.74,14.504 -4.182,1.357 -16.52,3.292 -16.52,-1.394 0,-2.475 0.675,-9.679 0.722,-10.985 3.853,-1.83 4.064,-7.52 4.298,-12.758 0.534,-12.061 -0.151,-28.663 1.797,-38.629 -1.391,-0.405 -2.952,-0.625 -3.589,-1.775 -0.365,-2.926 0.147,-7.634 0.882,-10.557 4.385,-1.795 12.034,-1.526 15.969,0.281 0,11.494 -1.12,11.119 -5.375,12.763 -0.373,10.135 -2.109,20.839 -1.439,30.831 4.184,-5.234 17.741,-26.347 20.807,-31.896 -1.072,-2.933 -0.603,-8.003 0.354,-10.986 3.101,-1.89 13.408,-2.709 15.426,0.707 C 3.357,-9.5 4.324,-5.151 3.158,-2.069 2.578,-0.537 0.684,-1.554 0,0"
         inkscape:connector-curvature="0" /></g><g
       style="fill:#bb2211;fill-opacity:1"
       transform="matrix(1.7456476,0,0,-1.7456476,652.799,142.13792)"
       id="g32"><path
         id="path34"
         style="fill:#bb2211;fill-opacity:1;fill-rule:nonzero;stroke:none"
         d="m 0,0 c -0.599,1.54 -3.675,0.622 -3.953,2.486 -1.335,15.898 -2.332,33.719 -2.149,49.965 5.664,0.391 2.687,10.083 1.793,13.473 -3.641,1.07 -11.445,1.194 -15.062,0 -0.93,-3.796 -0.142,-8.858 0.72,-12.053 0.816,-1.196 3.028,-1.021 3.583,-2.479 1.891,-9.103 1.301,-20.057 1.794,-30.833 0.206,-4.476 1.87,-15.201 1.071,-18.073 -0.382,-1.42 -2.36,-0.434 -2.865,-2.303 -1.089,-4.101 -0.79,-8.212 0.829,-11.274 4.419,0.598 11.306,-0.607 14.952,0.754 C 1.334,-7.114 0.635,-3.118 0,0"
         inkscape:connector-curvature="0" /></g><g
       style="fill:#bb2211;fill-opacity:1"
       transform="matrix(1.7456476,0,0,-1.7456476,492.73813,257.65074)"
       id="g36"><path
         id="path38"
         style="fill:#bb2211;fill-opacity:1;fill-rule:nonzero;stroke:none"
         d="m 0,0 c 3.582,-0.395 7.046,-1.766 10.424,-0.701 1.501,1.982 0.74,5.163 0.635,7.923 -0.104,2.761 0.422,5.841 -1.046,7.546 C 8.46,15.03 5.591,15.068 4.156,14.508 2.381,12.174 5.336,9.366 4.144,6.364 1.262,5.84 -5.073,4.471 -6.697,7.079 c -0.491,0.787 -0.555,2.897 -0.715,4.407 -0.504,4.702 -1.095,10.699 -0.032,14.202 1.939,0.579 4.2,-0.513 6.061,0.043 1.211,1.879 0.883,6.523 0.02,8.355 -2.203,0.847 -4.552,-0.799 -6.684,-0.025 -0.307,2.025 -0.857,4.856 -0.223,7.107 3.663,-0.547 6.625,-0.095 10.032,0.143 1.038,-2.956 0.891,-8.026 4.569,-8.481 1.717,-0.212 4.421,0.865 4.672,2.797 0.211,1.614 -1.292,3.059 -1.759,4.436 -0.904,2.674 -0.69,5.739 -2.302,7.372 -0.98,0.46 -2.488,0.22 -3.131,0.084 -3.389,-0.688 -9.094,-0.705 -13.587,-0.252 -4.064,0.41 -9.353,2.052 -7.643,-4.594 0.321,-1.248 2.291,-2.008 2.633,-2.997 0.647,-1.879 0.405,-5.202 0.626,-7.745 0.458,-5.376 0.271,-10.327 0.599,-16.099 0.174,-3 0.916,-5.856 0.205,-7.733 -0.45,-1.188 -2.017,-1.853 -2.373,-2.862 -0.66,-1.872 0.004,-3.374 0.889,-5.659 C -10.258,-1.43 -5.154,0.575 0,0"
         inkscape:connector-curvature="0" /></g><g
       style="fill:#bb2211;fill-opacity:1"
       transform="matrix(1.7456476,0,0,-1.7456476,724.25133,195.29499)"
       id="g40"><path
         id="path42"
         style="fill:#bb2211;fill-opacity:1;fill-rule:nonzero;stroke:none"
         d="m 0,0 c 0.42,-1.43 -0.051,-3.672 0,-5.091 0.367,-9.424 0.658,-21.003 4.514,-26.881 2.547,-3.877 8.91,-6.811 12.785,-2.544 5.969,6.582 3.099,22.399 3.756,35.365 0.601,1.42 1.859,1.28 2.256,3.109 0.484,2.229 -0.618,5.177 -1.008,7.079 -2.772,-0.019 -6.651,0.624 -9.768,0 -1.389,-1.443 -1.351,-6.412 -0.252,-8.211 0.444,-1.289 2.748,-0.483 3.008,-1.977 -0.512,-6.838 0.785,-13.144 0.248,-20.091 -0.336,-4.373 -2.225,-9.13 -6.512,-6.505 C 4.021,-22.683 6.182,-5.724 5.266,0.937 6.215,2.308 7.813,0.794 8.273,3.396 8.646,5.517 7.754,8.766 7.52,10.889 4.324,11.153 -0.332,11.182 -2.252,10.471 -3.039,8.18 -3.604,6.04 -3.006,3.678 -2.48,1.621 -0.395,1.372 0,0"
         inkscape:connector-curvature="0" /></g><g
       style="fill:#bb2211;fill-opacity:1"
       transform="matrix(1.7456476,0,0,-1.7456476,551.04346,257.37109)"
       id="g44"><path
         id="path46"
         style="fill:#bb2211;fill-opacity:1;fill-rule:nonzero;stroke:none"
         d="m 0,0 c 1.957,-0.148 3.501,-0.906 4.592,-0.123 1.345,0.966 0.782,4.9 0.617,7.296 -0.15,2.231 -0.354,6.024 -1.688,6.937 -1.632,1.115 -4.47,0.869 -6.47,0.179 -0.986,-2.689 1.706,-4.564 0.85,-7.121 -2.558,-0.897 -6.353,-0.853 -8.988,-0.176 -1.164,6.895 -1.926,15.202 -2.5,23.043 -0.173,2.358 -0.631,6.239 0,7.734 0.444,1.041 1.995,1.711 2.371,2.644 0.985,2.424 0.026,5.307 -0.85,6.92 -3.145,0.377 -6.596,-0.558 -9.611,0.056 -0.932,-1.363 -1.59,-5.007 -0.816,-7.082 0.298,-0.821 1.507,-1.151 1.827,-1.927 0.656,-1.642 0.419,-4.906 0.626,-7.539 0.463,-5.82 0.752,-9.898 1.457,-15.29 0.318,-2.415 1.306,-5.747 0.634,-7.325 -0.403,-0.963 -1.678,-1.302 -1.944,-2.245 -0.743,-2.728 0.63,-4.847 1.283,-6.716 C -13.307,-0.877 -5.973,0.478 0,0"
         inkscape:connector-curvature="0" /></g><g
       style="fill:#bb2211;fill-opacity:1"
       transform="matrix(1.7456476,0,0,-1.7456476,290.16638,173.3227)"
       id="g48"><path
         id="path50"
         style="fill:#bb2211;fill-opacity:1;fill-rule:nonzero;stroke:none"
         d="m 0,0 c 0.148,-2.732 -0.01,-5.861 1.224,-7.446 0.397,-0.387 1.334,-0.791 2.546,-0.443 3.444,-10.275 9.653,-34.978 9.653,-34.978 0,0 -0.316,-0.21 -0.99,-0.374 -1.011,-0.626 -0.465,-4.442 0.674,-5.63 2.207,-0.486 5.586,-0.341 7.837,-0.163 0,0 0.316,-0.077 0.417,0.288 0.368,1.048 0.075,4.155 -0.41,5.209 -0.108,0.245 -0.214,0.242 -0.214,0.242 l -0.733,0.129 c -0.847,0.247 -0.59,1.849 -0.59,1.849 0.993,5.859 2.765,14.972 3.66,19.369 1.341,-5.427 2.578,-10.52 4.48,-16.635 -0.004,0 1.298,-3.876 0.563,-3.86 0,0 -0.968,0.03 -1.11,-0.29 -0.385,-0.892 -0.298,-3.313 0.25,-5.205 0.637,-2.199 7.523,-1.419 9.751,-1.008 0.44,1.836 0.186,4.676 -0.707,6.213 l -1.391,0.369 c 0,0 1.17,11.138 1.766,16.224 0.653,5.624 0.923,13.105 2.287,17.526 0.303,0.498 1.43,0.192 1.395,1.033 0.359,1.743 0.454,4.792 -0.582,6.233 -3.093,0.318 -8.984,2.667 -10.436,-0.142 0.13,-1.843 0.13,-3.825 0.535,-5.376 4.167,-1.807 2.445,-7.244 1.994,-12.277 -0.318,-3.474 -0.771,-6.705 -1.342,-8.971 -1.931,5.107 -3.455,10.642 -4.945,16.218 1.859,0.772 2.017,5.717 0.383,7.499 -2.703,0.395 -5.714,0.463 -8.602,0.663 -1.416,-1.398 -1.269,-6.871 1.079,-7.536 -0.63,-6.037 -1.174,-12.167 -2.718,-17.296 -1.932,6.551 -3.996,12.967 -5.39,20.094 -0.193,1.002 1.145,1.383 2.199,1.637 -0.144,2.662 -0.332,5.707 -1.934,6.821 C 6.901,0.63 2.505,1.218 0,0"
         inkscape:connector-curvature="0" /></g><g
       style="fill:#bb2211;fill-opacity:1"
       transform="matrix(1.7456476,0,0,-1.7456476,801.7895,68.517327)"
       id="g52"><path
         id="path54"
         style="fill:#bb2211;fill-opacity:1;fill-rule:nonzero;stroke:none"
         d="m 0,0 c -2.479,1.471 -17.285,1.972 -19.006,-0.354 -2.301,-3.09 0.512,-9.018 3.225,-10.987 2.488,-0.251 4.521,1.569 6.818,0.356 2.121,-2.866 2.518,-9.186 2.512,-14.175 -0.022,-6.37 -0.58,-17.253 -6.459,-17.718 -7.11,-0.573 -11.17,10.457 -12.195,18.43 -1.104,8.622 -0.694,20.478 0,28.71 0.533,6.249 3.001,14.116 8.246,12.755 5.314,-1.384 -0.204,-6.16 3.228,-10.631 4.84,-0.24 10.949,-1.067 12.555,1.061 2.17,2.889 -0.432,5.69 -1.076,7.086 -3.241,7.003 -8.262,12.319 -17.215,11.341 -12.299,-1.34 -15.719,-18.313 -16.498,-32.244 -0.897,-15.921 2.699,-39.068 11.123,-45.368 4.111,-3.076 11.908,-3.84 16.846,-1.772 7.009,2.931 10.47,11.972 11.125,21.613 C 3.971,-20.909 4.111,-2.432 0,0"
         inkscape:connector-curvature="0" /></g><g
       style="fill:#bb2211;fill-opacity:1"
       transform="matrix(1.7456476,0,0,-1.7456476,585.53885,261.37386)"
       id="g56"><path
         id="path58"
         style="fill:#bb2211;fill-opacity:1;fill-rule:nonzero;stroke:none"
         d="m 0,0 c 4.443,0.438 8.875,4.47 9.281,10.208 0.774,10.976 -6.694,14.358 -11.92,19.196 -2.364,2.183 -5.679,5.513 -5.693,8.973 0,1.688 0.598,3.639 2.225,4.248 4.198,1.575 6.629,-2.251 6.167,-5.501 -0.16,-1.143 -1.598,-2.846 -0.816,-4.479 1.07,-1.179 5.127,-0.723 5.127,-0.723 4.577,0.332 1.466,9.044 1.165,10.178 -2.315,6.435 -6.664,7.303 -9.722,7.654 -6.936,0.781 -11.518,-4.758 -10.865,-12.013 0.866,-9.555 12.611,-13.645 16.109,-20.13 1.576,-2.92 1.783,-8.298 -1.788,-9.387 -3.062,-0.933 -5.753,1.326 -5.656,3.234 0.041,0.845 0.864,1.43 1.022,2.432 0.427,2.647 -1.396,3.928 -3.343,4.437 -2.535,0.495 -3.677,0.045 -4.154,-0.326 L -13.193,17.63 C -14.48,13.529 -11.692,6.677 -11.692,6.677 -10.306,3.496 -6.036,-0.599 0,0"
         inkscape:connector-curvature="0" /></g><g
       style="fill:#bb2211;fill-opacity:1"
       transform="matrix(1.7456476,0,0,-1.7456476,347.34821,116.4289)"
       id="g60"><path
         id="path62"
         style="fill:#bb2211;fill-opacity:1;fill-rule:nonzero;stroke:none"
         d="m 0,0 c 0,-11.786 -14.134,-13.38 -14.134,-13.38 l -1.29,-0.257 c -0.456,0 -0.549,0.705 -0.549,0.705 -2.613,9.576 -2.613,31.615 -2.613,31.615 C 3.456,21.362 0,0 0,0 m -18.771,39.569 c 15.13,2.109 12.89,-5.75 12.89,-5.75 -1.317,-4.598 -12.89,-3.637 -12.89,-3.637 -0.936,4.022 0,9.387 0,9.387 M 8.626,11.099 c -1.561,6.548 -5.768,10.03 -10.369,13.053 8.763,2.673 8.99,17.303 4.012,23.635 -4.122,5.248 -12.691,6.889 -20.73,6.352 -4.005,-0.269 -8.695,0.56 -11.369,-2.469 -0.949,-2.325 -1.155,-6.627 0,-8.822 1.014,-1.945 2.422,-1.254 3.346,-2.821 -0.352,-18.827 0.584,-36.299 1.338,-53.973 -1.843,-0.529 -4.624,-0.07 -5.69,-1.415 -3.737,-9.511 4.14,-12.485 10.369,-12.693 12.129,-0.417 21.889,4.522 26.747,12.693 3.776,6.358 4.117,18.98 2.346,26.46"
         inkscape:connector-curvature="0" /></g><g
       style="fill:#bb2211;fill-opacity:1"
       transform="matrix(1.7456476,0,0,-1.7456476,472.07508,65.845962)"
       id="g64"><path
         id="path66"
         style="fill:#bb2211;fill-opacity:1;fill-rule:nonzero;stroke:none"
         d="M 0,0 C -1.066,4.807 -0.505,10.962 -0.505,10.962 18.049,13.796 16.054,6.406 16.054,6.406 17.109,-3.261 0,0 0,0 m 35.422,-45.373 c -1.112,2.537 -3.737,2.202 -4.769,4.111 -1.474,13.818 -3.049,27.533 -11.928,33.911 2.595,1.349 4.031,2.533 5.798,4.798 4.364,5.612 3.229,15.847 -1.361,20.552 -5.66,5.796 -17.106,5.631 -27.606,5.139 -4.143,-0.199 -8.559,0.594 -11.251,-2.056 -0.388,-2.584 0.234,-5.821 0.682,-8.561 5.373,-2.092 4.768,-9.384 4.768,-17.478 0,-12.579 0.371,-26.944 0.683,-37.672 -1.65,-0.285 -3.423,-0.439 -4.434,-1.366 -0.974,-2.491 -1.044,-7.807 0,-10.284 4.012,-3.325 12.382,-0.814 18.067,-0.678 0.608,2.934 1.651,8.281 0,10.962 -1.226,1.99 -3.375,0.786 -4.429,2.733 -0.713,9.55 -1.584,20.433 0,29.802 16.977,1.193 21.386,-13.213 21.128,-30.483 -1.424,-0.391 -3.297,-0.339 -4.093,-1.37 -0.915,-3.043 -1.387,-9.555 0.685,-11.644 4.975,-0.267 12.358,-0.129 17.719,0.336 1.195,2.754 1.515,6.596 0.341,9.248"
         inkscape:connector-curvature="0" /></g><g
       style="fill:#bb2211;fill-opacity:1"
       transform="matrix(1.7456476,0,0,-1.7456476,783.10898,198.67718)"
       id="g68"><path
         id="path70"
         style="fill:#bb2211;fill-opacity:1;fill-rule:nonzero;stroke:none"
         d="M 0,0 C -0.623,2.837 -0.297,6.479 -0.297,6.479 10.549,8.151 9.381,3.786 9.381,3.786 10.002,-1.927 0,0 0,0 m 20.703,-26.795 c -0.654,1.5 -2.189,1.297 -2.787,2.43 -0.863,8.16 -1.787,16.259 -6.973,20.026 1.514,0.793 2.358,1.494 3.387,2.831 2.553,3.318 1.889,9.363 -0.795,12.144 -3.308,3.42 -9.998,3.321 -16.133,3.034 -2.418,-0.117 -5.006,0.35 -6.574,-1.215 -0.223,-1.528 0.137,-3.438 0.399,-5.06 3.136,-1.232 2.791,-5.541 2.791,-10.315 0,-7.437 0.214,-15.919 0.39,-22.258 -0.957,-0.165 -1.998,-0.255 -2.586,-0.809 -0.574,-1.464 -0.613,-4.612 0,-6.069 2.34,-1.964 7.237,-0.486 10.561,-0.402 0.351,1.731 0.959,4.892 0,6.471 -0.717,1.178 -1.977,0.466 -2.592,1.622 -0.414,5.64 -0.926,12.07 0,17.598 9.926,0.704 12.496,-7.801 12.348,-18.005 -0.83,-0.232 -1.928,-0.202 -2.391,-0.808 -0.533,-1.801 -0.812,-5.649 0.4,-6.878 2.903,-0.155 7.219,-0.073 10.358,0.203 0.695,1.621 0.885,3.894 0.197,5.46"
         inkscape:connector-curvature="0" /></g><g
       style="fill:#bb2211;fill-opacity:1"
       transform="matrix(1.7456476,0,0,-1.7456476,444.14314,256.63128)"
       id="g72"><path
         id="path74"
         style="fill:#bb2211;fill-opacity:1;fill-rule:nonzero;stroke:none"
         d="m 0,0 c 3.58,-0.397 7.048,-1.771 10.422,-0.704 1.5,1.983 0.742,5.161 0.639,7.921 -0.109,2.763 0.42,5.844 -1.047,7.548 -1.559,0.258 -4.426,0.3 -5.86,-0.261 C 2.383,12.169 5.334,9.361 4.144,6.359 1.26,5.834 -5.071,4.466 -6.699,7.072 c -0.489,0.788 -0.553,2.901 -0.713,4.41 -0.506,4.704 -1.098,10.699 -0.03,14.204 1.938,0.578 4.198,-0.514 6.059,0.04 1.209,1.881 0.881,6.525 0.022,8.355 -2.205,0.851 -4.557,-0.797 -6.686,-0.025 -0.311,2.029 -0.859,4.856 -0.224,7.111 3.666,-0.549 6.626,-0.098 10.029,0.138 1.045,-2.954 0.893,-8.025 4.572,-8.476 1.721,-0.215 4.42,0.863 4.674,2.792 0.212,1.615 -1.295,3.062 -1.76,4.436 C 8.342,42.73 8.551,45.799 6.94,47.432 5.959,47.89 4.452,47.649 3.809,47.516 0.418,46.827 -5.283,46.812 -9.773,47.261 c -4.068,0.411 -9.357,2.053 -7.647,-4.591 0.322,-1.248 2.29,-2.008 2.633,-2.999 0.648,-1.875 0.406,-5.203 0.624,-7.743 0.458,-5.377 0.272,-10.33 0.6,-16.1 0.172,-2.999 0.92,-5.855 0.208,-7.735 -0.449,-1.185 -2.02,-1.849 -2.376,-2.86 -0.663,-1.869 0.002,-3.372 0.89,-5.661 C -10.259,-1.437 -5.158,0.567 0,0"
         inkscape:connector-curvature="0" /></g><g
       style="fill:#bb2211;fill-opacity:1"
       transform="matrix(1.7456476,0,0,-1.7456476,371.36971,59.209534)"
       id="g76"><path
         id="path78"
         style="fill:#bb2211;fill-opacity:1;fill-rule:nonzero;stroke:none"
         d="m 0,0 c 0.704,-2.384 -0.092,-6.133 0,-8.499 0.629,-15.731 1.11,-35.045 7.713,-44.856 4.356,-6.475 15.25,-11.367 21.872,-4.252 10.233,10.99 5.312,37.381 6.439,59.024 1.02,2.363 3.172,2.134 3.85,5.191 0.833,3.721 -1.053,8.631 -1.717,11.807 -4.747,-0.031 -11.382,1.041 -16.716,0 -2.368,-2.4 -2.314,-10.693 -0.43,-13.692 0.758,-2.156 4.705,-0.813 5.142,-3.306 -0.864,-11.406 1.347,-21.937 0.43,-33.525 -0.576,-7.31 -3.812,-15.241 -11.147,-10.865 -8.566,5.11 -4.865,33.42 -6.44,44.533 1.621,2.286 4.363,-0.234 5.156,4.105 0.64,3.545 -0.899,8.959 -1.294,12.502 C 7.382,18.61 -0.576,18.656 -3.858,17.473 -5.217,13.647 -6.173,10.081 -5.155,6.14 -4.253,2.709 -0.686,2.292 0,0"
         inkscape:connector-curvature="0" /></g><g
       style="fill:#bb2211;fill-opacity:1"
       transform="matrix(1.7456476,0,0,-1.7456476,633.01558,198.76918)"
       id="g80"><path
         id="path82"
         style="fill:#bb2211;fill-opacity:1;fill-rule:nonzero;stroke:none"
         d="m 0,0 c 1.76,-0.6 4.709,-1.137 5.6,0.265 0.248,2.108 -0.521,3.709 -0.042,5.247 1.77,0.567 3.015,0.201 5.029,0.076 1.126,-8.783 2.041,-23.022 2.158,-32.167 -1.128,-0.437 -2.267,-0.543 -2.988,-1.029 0.016,-2.92 0.184,-3.384 0.83,-5.479 2.728,-2.002 7.855,-1.592 10.941,-0.287 0.879,2.508 0.844,4.228 -0.218,6.429 -0.929,0.589 -2.475,0.407 -3.498,0.876 -0.018,9.744 -1.218,23.105 -1.314,31.804 0.929,0.498 2.813,0.425 4.069,0.498 0.755,-0.911 0.288,-4.175 0.961,-5.198 1.63,-0.663 3.368,0.147 5.038,0.283 0.277,3.181 0.553,8.629 -0.22,11.374 -1.33,1.156 -2.851,0.376 -4.376,0.283 C 14.559,12.527 6.016,14.053 -0.476,12.217 -1.524,7.997 -1.391,2.887 0,0"
         inkscape:connector-curvature="0" /></g><g
       style="fill:#bb2211;fill-opacity:1"
       transform="matrix(1.7456476,0,0,-1.7456476,363.58151,187.92032)"
       id="g84"><path
         id="path86"
         style="fill:#bb2211;fill-opacity:1;fill-rule:nonzero;stroke:none"
         d="m 0,0 c 0.613,-0.451 1.868,-0.305 2.211,-1.015 -0.233,-10.373 0.721,-21.107 2.045,-32.06 -0.499,-0.615 -1.609,-0.335 -1.915,-1.154 -0.057,-2.075 -0.175,-4.455 0.682,-5.668 0.199,-0.685 7.33,-1.227 9.612,0.148 0.037,2.192 -0.171,4.154 -0.46,6.043 -3.351,-0.38 -3.103,5.704 -3.485,10.069 -0.29,3.346 -0.41,6.911 0.056,9.559 4.712,1.916 12.132,2.214 12.655,-3.047 0.447,-4.471 -0.365,-10.354 0.008,-14.964 -0.233,-1.051 -2.107,-0.501 -2.133,-1.603 -0.056,-2.415 0.009,-4.713 0.661,-6.462 2.775,-0.528 6.21,0.114 8.771,-0.033 0.187,1.853 0.744,4.403 0.165,6.023 -0.449,1.257 -1.404,1.098 -1.825,2.128 -0.227,10.907 -0.978,21.325 -1.203,32.243 2.67,0.655 1.894,4.97 1.089,7.259 -2.821,0.255 -6.365,0.522 -9.018,-0.355 -1.024,-1.248 -0.809,-4.38 -0.151,-5.77 0.392,-0.778 1.815,-0.443 2.315,-1.12 0.708,-1.348 0.867,-3.73 0.409,-5.519 C 17.27,-6.418 12.547,-6.995 8.133,-5.956 8.094,-4.105 7.489,-2.79 7.649,-0.747 7.932,0.095 9.24,-0.141 9.567,0.656 9.296,3.557 10.474,5.509 8.929,6.515 6.952,7.799 2.603,6.967 0.082,6.587 -0.136,6.271 -0.751,4.892 0,0"
         inkscape:connector-curvature="0" /></g><path
       inkscape:connector-curvature="0"
       id="path90"
       d="M 143.71875,19.995869 C 75.397591,19.995869 20,75.391718 20,143.71462 c 0,68.32639 55.397591,123.6875 123.71875,123.6875 68.31766,0 123.6875,-55.36111 123.6875,-123.6875 0,-68.322902 -55.36984,-123.718751 -123.6875,-123.718751 z m -53.90625,16.5 0.125,0.90625 c 0.516712,5.793804 4.677907,29.652595 38.53125,35.40625 0,0 50.76118,3.465853 47.125,45.312501 -5.34517,-1.26734 -10.92704,-1.9375 -16.65625,-1.9375 -25.72212,0 -48.28313,13.52616 -60.96875,33.84375 0,0 -13.144369,-6.56366 -9.28125,-35.90625 0,0 3.478989,-27.413044 -19.6875,-34.750001 0,0 17.374496,-3.061299 25.09375,15.46875 0,0 1.284656,2.888281 2.25,6.812501 1.173075,7.88334 8.29371,13.96875 16.5,13.96875 9.03373,0 16.34375,-7.31177 16.34375,-16.343751 0,-6.570618 -3.87918,-12.246227 -9.46875,-14.84375 -1.53966,-0.68604 -3.09639,-1.688818 -5.15625,-2.71875 0,0 -28.448169,-14.626704 -24.90625,-44.1875 l 0.15625,-1.03125 z m 69.125,86.375001 c 35.96907,0 65.125,29.15069 65.125,65.125 0,35.96907 -29.15593,65.15625 -65.125,65.15625 -35.97606,0 -65.125,-29.18718 -65.125,-65.15625 0,-35.97431 29.14894,-65.125 65.125,-65.125 z m 0,12.0625 c -29.31467,0 -53.0625,23.74435 -53.0625,53.0625 0,29.31466 23.74783,53.09375 53.0625,53.09375 0.25661,0 0.49514,0.003 0.75,0 -24.9069,-1.00899 -44.78125,-21.5362 -44.78125,-46.6875 0,-25.79368 20.92681,-46.6875 46.71875,-46.6875 25.79369,0 46.6875,20.89382 46.6875,46.6875 0,12.08512 -4.56477,23.11093 -12.09375,31.40625 9.76341,-9.6255 15.8125,-23.02338 15.8125,-37.8125 0,-29.31815 -23.77735,-53.0625 -53.09375,-53.0625 z m 0,33.09375 c -11.03424,0 -19.96875,8.92753 -19.96875,19.96875 0,11.03249 8.93451,20 19.96875,20 11.03947,0 19.96875,-8.96751 19.96875,-20 0,-11.04122 -8.92928,-19.96875 -19.96875,-19.96875 z"
       style="fill:#bb2211;fill-opacity:1;fill-rule:nonzero;stroke:none" /></g></svg>